<svg width="512" height="512" viewBox="0 0 512 512" fill="none" xmlns="http://www.w3.org/2000/svg">
<path d="M418.262 3.94311e-08H94.73C88.068 -0.000262623 81.4711 1.31173 75.3162 3.86106C69.1612 6.41038 63.5687 10.1471 58.8579 14.8579C54.1471 19.5687 50.4104 25.1612 47.8611 31.3162C45.3117 37.4711 43.9997 44.068 44 50.73V461.27C43.9997 467.932 45.3117 474.529 47.8611 480.684C50.4104 486.839 54.1471 492.431 58.8579 497.142C63.5687 501.853 69.1612 505.59 75.3162 508.139C81.4711 510.688 88.068 512 94.73 512H418.258C424.92 512 431.517 510.688 437.672 508.139C443.827 505.59 449.419 501.853 454.13 497.142C458.841 492.431 462.578 486.839 465.127 480.684C467.676 474.529 468.988 467.932 468.988 461.27V50.73C468.989 44.0682 467.677 37.4715 465.128 31.3166C462.579 25.1617 458.843 19.5692 454.132 14.8584C449.422 10.1476 443.83 6.41083 437.675 3.8614C431.52 1.31198 424.924 -0.000131325 418.262 3.94311e-08V3.94311e-08Z" fill="#6380D2"/>
<path d="M105.313 175.129C104.154 175.128 103.043 174.667 102.224 173.847C101.404 173.028 100.943 171.917 100.942 170.758V50.7299C100.943 49.571 101.404 48.46 102.224 47.6406C103.043 46.8211 104.154 46.3602 105.313 46.3589H407.676C408.835 46.3594 409.947 46.82 410.768 47.6395C411.588 48.459 412.049 49.5704 412.051 50.7299V170.758C412.049 171.917 411.588 173.029 410.768 173.848C409.947 174.668 408.835 175.128 407.676 175.129H105.313Z" fill="#76E6D5"/>
<path d="M131.848 170.758V50.7299C131.849 49.571 132.31 48.46 133.13 47.6406C133.949 46.8211 135.06 46.3602 136.219 46.3589H105.313C104.154 46.3602 103.043 46.8211 102.224 47.6406C101.404 48.46 100.943 49.571 100.942 50.7299V170.758C100.943 171.917 101.404 173.028 102.224 173.847C103.043 174.667 104.154 175.128 105.313 175.129H136.219C135.06 175.128 133.949 174.667 133.13 173.847C132.31 173.028 131.849 171.917 131.848 170.758V170.758Z" fill="#00CCAC"/>
<path d="M210.453 210.508H125.383C118.901 210.508 112.684 213.083 108.101 217.667C103.517 222.25 100.942 228.467 100.942 234.949V302.758C100.942 309.24 103.517 315.457 108.1 320.041C112.684 324.625 118.901 327.2 125.383 327.2H210.453C213.663 327.201 216.842 326.569 219.808 325.341C222.774 324.113 225.469 322.312 227.739 320.043C230.009 317.773 231.81 315.078 233.039 312.113C234.267 309.147 234.9 305.968 234.9 302.758V234.949C234.899 228.466 232.323 222.249 227.738 217.666C223.153 213.082 216.936 210.508 210.453 210.508V210.508Z" fill="#B1E2FD"/>
<path d="M131.848 302.754V234.954C131.848 231.744 132.48 228.566 133.708 225.601C134.936 222.635 136.737 219.941 139.006 217.671C141.276 215.402 143.97 213.601 146.936 212.373C149.901 211.145 153.079 210.513 156.289 210.513H125.383C118.901 210.513 112.684 213.088 108.101 217.672C103.517 222.255 100.942 228.472 100.942 234.954V302.754C100.942 309.237 103.516 315.454 108.1 320.038C112.683 324.623 118.9 327.199 125.383 327.2H156.289C153.079 327.2 149.9 326.567 146.935 325.338C143.969 324.11 141.275 322.309 139.005 320.039C136.736 317.769 134.936 315.074 133.707 312.108C132.479 309.143 131.847 305.964 131.848 302.754V302.754Z" fill="#80C4E6"/>
<path d="M158.93 295.57V277.758H141.117C137.125 277.758 134.461 274.258 134.461 268.934C134.461 263.942 137.125 259.946 141.117 259.946H158.93V242.3C158.93 238.8 162.93 235.476 167.918 235.476C173.246 235.476 176.742 238.804 176.742 242.3V259.945H194.387C197.887 259.945 201.375 263.945 201.375 268.933C201.375 274.261 197.875 277.757 194.387 277.757H176.742V295.57C176.742 299.562 173.242 302.226 167.918 302.226C162.926 302.227 158.93 299.566 158.93 295.57Z" fill="white"/>
<path d="M387.609 210.508H302.539C299.329 210.508 296.15 211.14 293.185 212.368C290.219 213.596 287.524 215.396 285.254 217.666C282.984 219.935 281.184 222.63 279.955 225.595C278.727 228.561 278.094 231.739 278.094 234.949V302.758C278.094 305.968 278.726 309.147 279.955 312.112C281.183 315.078 282.984 317.772 285.254 320.042C287.524 322.312 290.219 324.112 293.184 325.34C296.15 326.568 299.329 327.2 302.539 327.2H387.609C394.091 327.2 400.307 324.625 404.891 320.041C409.474 315.458 412.049 309.241 412.05 302.759V234.949C412.049 228.467 409.474 222.25 404.891 217.667C400.307 213.083 394.091 210.508 387.609 210.508V210.508Z" fill="#FD99C8"/>
<path d="M309 302.754V234.954C309 231.744 309.633 228.566 310.861 225.6C312.09 222.635 313.89 219.94 316.16 217.671C318.43 215.401 321.125 213.601 324.091 212.373C327.056 211.145 330.235 210.513 333.445 210.513H302.539C299.329 210.513 296.15 211.145 293.185 212.373C290.219 213.601 287.524 215.401 285.254 217.671C282.984 219.94 281.184 222.635 279.955 225.6C278.727 228.566 278.094 231.744 278.094 234.954V302.754C278.094 309.237 280.669 315.455 285.253 320.04C289.838 324.624 296.055 327.2 302.539 327.2H333.445C330.234 327.2 327.056 326.568 324.09 325.339C321.124 324.111 318.429 322.31 316.159 320.04C313.889 317.77 312.088 315.075 310.86 312.109C309.632 309.143 308.999 305.964 309 302.754V302.754Z" fill="#E8738B"/>
<path d="M323.266 259.945H366.547C370.039 259.945 373.535 263.945 373.535 268.933C373.535 274.261 370.035 277.757 366.547 277.757H323.266C319.266 277.757 316.61 274.257 316.61 268.933C316.609 263.941 319.27 259.945 323.266 259.945Z" fill="white"/>
<path d="M210.453 361.484H125.383C118.901 361.485 112.685 364.06 108.102 368.644C103.518 373.227 100.943 379.443 100.942 385.925V453.734C100.942 460.216 103.517 466.432 108.101 471.016C112.684 475.6 118.901 478.175 125.383 478.175H210.453C213.663 478.175 216.842 477.544 219.808 476.316C222.773 475.088 225.468 473.287 227.739 471.018C230.009 468.748 231.81 466.054 233.038 463.088C234.267 460.123 234.9 456.944 234.9 453.734V385.926C234.898 379.443 232.322 373.226 227.737 368.643C223.153 364.059 216.936 361.484 210.453 361.484Z" fill="#F5E277"/>
<path d="M131.848 453.734V385.926C131.848 382.716 132.48 379.538 133.708 376.573C134.936 373.607 136.737 370.913 139.006 368.643C141.276 366.374 143.97 364.573 146.936 363.345C149.901 362.117 153.079 361.485 156.289 361.485H125.383C118.901 361.485 112.684 364.06 108.101 368.644C103.517 373.227 100.942 379.444 100.942 385.926V453.735C100.942 460.217 103.517 466.433 108.101 471.017C112.684 475.6 118.901 478.176 125.383 478.176H156.289C153.079 478.176 149.901 477.544 146.935 476.316C143.97 475.087 141.275 473.287 139.006 471.017C136.736 468.748 134.936 466.053 133.708 463.087C132.48 460.122 131.848 456.944 131.848 453.734V453.734Z" fill="#FAB659"/>
<path d="M141.969 439.813L156.8 419.078L142.976 399.848C142.398 399.081 142.051 398.164 141.976 397.207C141.976 393.437 148.507 389.043 152.776 389.043C153.483 389.001 154.189 389.141 154.827 389.448C155.465 389.756 156.013 390.222 156.421 390.801L167.859 409.149L179.422 390.926C179.856 390.335 180.424 389.856 181.079 389.529C181.735 389.202 182.459 389.035 183.192 389.043C187.087 389.043 193.876 393.443 193.876 397.207C193.803 398.166 193.453 399.084 192.868 399.848L178.914 419.2L193.871 439.809C194.519 440.585 194.873 441.564 194.871 442.575C194.871 446.095 188.59 450.618 184.316 450.618C183.594 450.634 182.878 450.484 182.223 450.178C181.569 449.873 180.994 449.42 180.543 448.856L167.852 429.756L155.286 448.856C154.785 449.426 154.166 449.88 153.47 450.185C152.775 450.489 152.022 450.637 151.263 450.618C147.868 450.618 140.963 446.345 140.963 442.575C140.971 441.566 141.326 440.59 141.969 439.813V439.813Z" fill="white"/>
<path d="M387.609 361.484H302.539C296.056 361.484 289.839 364.059 285.255 368.642C280.671 373.226 278.095 379.442 278.094 385.925V453.734C278.094 456.944 278.727 460.122 279.955 463.088C281.184 466.053 282.984 468.748 285.254 471.017C287.524 473.287 290.219 475.087 293.185 476.315C296.15 477.543 299.329 478.175 302.539 478.175H387.609C394.091 478.175 400.307 475.6 404.891 471.016C409.474 466.432 412.049 460.216 412.05 453.734V385.926C412.049 379.444 409.474 373.228 404.89 368.644C400.307 364.06 394.091 361.485 387.609 361.484V361.484Z" fill="#76E6D5"/>
<path d="M309 453.734V385.926C309 382.716 309.633 379.538 310.861 376.572C312.09 373.607 313.89 370.912 316.16 368.643C318.43 366.373 321.125 364.573 324.091 363.345C327.056 362.117 330.235 361.485 333.445 361.485H302.539C299.329 361.485 296.15 362.117 293.185 363.345C290.219 364.573 287.524 366.373 285.254 368.643C282.984 370.912 281.184 373.607 279.955 376.572C278.727 379.538 278.094 382.716 278.094 385.926V453.735C278.094 456.945 278.727 460.123 279.955 463.089C281.184 466.054 282.984 468.749 285.254 471.018C287.524 473.288 290.219 475.088 293.185 476.316C296.15 477.544 299.329 478.176 302.539 478.176H333.445C330.235 478.177 327.056 477.545 324.09 476.317C321.124 475.089 318.429 473.288 316.159 471.019C313.889 468.749 312.088 466.054 310.86 463.088C309.632 460.123 308.999 456.944 309 453.734V453.734Z" fill="#00CCAC"/>
<path d="M323.434 394.027H366.379C369.879 394.027 373.371 398.027 373.371 403.019C373.371 408.347 369.871 411.839 366.379 411.839H323.434C319.434 411.839 316.774 408.339 316.774 403.019C316.773 398.023 319.438 394.027 323.434 394.027ZM323.434 427.82H366.379C369.879 427.82 373.371 431.82 373.371 436.808C373.371 442.136 369.871 445.632 366.379 445.632H323.434C319.434 445.632 316.774 442.132 316.774 436.808C316.773 431.816 319.438 427.82 323.434 427.82Z" fill="white"/>
</svg>
